# xmcd
#
# Track frame offsets:
#	150
#	20720
#	44053
#	68998
#	95147
#	116243
#	132979
#	150470
#	169369
#	190088
#	205557
#	224752
#	247692
#
# Disc length: 3645 seconds
#
# Revision: 0
# Processed by: cddbd v1.5.2PL0 Copyright (c) Steve Scherf et al.
# Submitted via: EasyCDDAExtractor 10.0.3.1
#
DISCID=c40e3b0d
DTITLE=Various Artist - Trinh Cong Son - Mot doi de nho
DYEAR=1900
DGENRE=
TTITLE0=Elvis Phuong - Xin tra no nguoi
TTITLE1=Le Thu - Loi buon thanh
TTITLE2=Thanh Thuy - Thuong mot nguoi
TTITLE3=Khanh Ly - Doi goi em biet bao lan
TTITLE4=Vu Khanh - Hay khoc di em
TTITLE5=Tuan Ngoc - Vang phai truoc ngo
TTITLE6=Ngoc Lan - Nhung con mat tran gian
TTITLE7=Y Lan - Ngau nhien
TTITLE8=Thai Hien - Goi ten bon mua
TTITLE9=Khanh Ly - Em den tu nghin xua
TTITLE10=Tuan Ngoc - Bon mua thay la
TTITLE11=Instrumental - Ru em tung ngon xuan hong
TTITLE12=Si Si Thanh Ly - Vet lang tram
EXTD=
EXTT0=
EXTT1=
EXTT2=
EXTT3=
EXTT4=
EXTT5=
EXTT6=
EXTT7=
EXTT8=
EXTT9=
EXTT10=
EXTT11=
EXTT12=
PLAYORDER=
